<svg width="84" height="84" viewBox="0 0 84 84" fill="none" xmlns="http://www.w3.org/2000/svg">
<g filter="url(#filter0_dd_163_9305)">
<rect x="12.25" y="12.1765" width="58" height="58" rx="29" fill="url(#paint0_linear_163_9305)"/>
<g clip-path="url(#clip0_163_9305)">
<path d="M54.37 26.1685V50.2965L41.122 56.4405L27.874 50.2965V26.1685L40.866 32.1845L41.122 32.3125L41.378 32.1845L54.37 26.1685ZM55.01 25.1765L41.122 31.6085L27.202 25.1765V50.7125L41.09 57.1445L54.978 50.7125V25.1765H55.01Z" fill="white"/>
<path d="M38.37 40.4405L39.522 43.3845H37.154L38.37 40.4405ZM36.482 35.5125L37.186 37.1765L32.386 48.0245H35.266L36.13 45.8805H40.482L41.346 48.0245H44.258L39.074 35.4805H36.482V35.5125Z" fill="white"/>
<path d="M47.874 36.0564H45.25V48.0244H47.874V36.0564Z" fill="white"/>
</g>
</g>
<defs>
<filter id="filter0_dd_163_9305" x="0.65" y="0.576514" width="82.7467" height="82.7467" filterUnits="userSpaceOnUse" color-interpolation-filters="sRGB">
<feFlood flood-opacity="0" result="BackgroundImageFix"/>
<feColorMatrix in="SourceAlpha" type="matrix" values="0 0 0 0 0 0 0 0 0 0 0 0 0 0 0 0 0 0 127 0" result="hardAlpha"/>
<feOffset dx="3.09333" dy="3.09333"/>
<feGaussianBlur stdDeviation="4.64"/>
<feColorMatrix type="matrix" values="0 0 0 0 0 0 0 0 0 0 0 0 0 0 0 0 0 0 0.12 0"/>
<feBlend mode="normal" in2="BackgroundImageFix" result="effect1_dropShadow_163_9305"/>
<feColorMatrix in="SourceAlpha" type="matrix" values="0 0 0 0 0 0 0 0 0 0 0 0 0 0 0 0 0 0 127 0" result="hardAlpha"/>
<feOffset dx="0.773333" dy="0.773333"/>
<feGaussianBlur stdDeviation="6.18667"/>
<feColorMatrix type="matrix" values="0 0 0 0 0 0 0 0 0 0 0 0 0 0 0 0 0 0 0.06 0"/>
<feBlend mode="normal" in2="effect1_dropShadow_163_9305" result="effect2_dropShadow_163_9305"/>
<feBlend mode="normal" in="SourceGraphic" in2="effect2_dropShadow_163_9305" result="shape"/>
</filter>
<linearGradient id="paint0_linear_163_9305" x1="41.25" y1="12.1765" x2="24.43" y2="86.4165" gradientUnits="userSpaceOnUse">
<stop offset="0.074717" stop-color="#D1453F"/>
<stop offset="0.341829" stop-color="#D76560"/>
<stop offset="1" stop-color="#A02024"/>
</linearGradient>
<clipPath id="clip0_163_9305">
<rect width="32" height="32" fill="white" transform="translate(25.25 25.1765)"/>
</clipPath>
</defs>
</svg>
