<svg width="23" height="24" viewBox="0 0 23 24" fill="none" xmlns="http://www.w3.org/2000/svg">
<path d="M10.5 6V18M7.5 15.182L8.379 15.841C9.55 16.72 11.449 16.72 12.621 15.841C13.793 14.962 13.793 13.538 12.621 12.659C12.036 12.219 11.268 12 10.5 12C9.775 12 9.05 11.78 8.497 11.341C7.391 10.462 7.391 9.038 8.497 8.159C9.603 7.28 11.397 7.28 12.503 8.159L12.918 8.489M19.5 12C19.5 13.1819 19.2672 14.3522 18.8149 15.4442C18.3626 16.5361 17.6997 17.5282 16.864 18.364C16.0282 19.1997 15.0361 19.8626 13.9442 20.3149C12.8522 20.7672 11.6819 21 10.5 21C9.3181 21 8.14778 20.7672 7.05585 20.3149C5.96392 19.8626 4.97177 19.1997 4.13604 18.364C3.30031 17.5282 2.63738 16.5361 2.18508 15.4442C1.73279 14.3522 1.5 13.1819 1.5 12C1.5 9.61305 2.44821 7.32387 4.13604 5.63604C5.82387 3.94821 8.11305 3 10.5 3C12.8869 3 15.1761 3.94821 16.864 5.63604C18.5518 7.32387 19.5 9.61305 19.5 12Z" stroke="#454545" stroke-width="1.5" stroke-linecap="round" stroke-linejoin="round"/>
</svg>
