<svg width="48" height="48" viewBox="0 0 48 48" fill="none" xmlns="http://www.w3.org/2000/svg">
<path fill-rule="evenodd" clip-rule="evenodd" d="M15.4872 7.29328C11.9592 9.09091 9.09078 11.9593 7.29316 15.4873C5.49553 19.0154 4.86096 23.0219 5.48038 26.9328L6.96191 26.6981C6.39204 23.1002 6.97585 19.4141 8.62967 16.1683C10.2835 12.9225 12.9224 10.2836 16.1682 8.62979C19.414 6.97598 23.1 6.39216 26.698 6.96203C29.8143 7.4556 32.7259 8.79265 35.1233 10.8154H31.0214V12.3154L36.0214 12.3154C36.9879 12.3154 37.7714 11.5319 37.7714 10.5654V5.56542L36.2714 5.56542L36.2714 9.82345C33.6317 7.53835 30.3986 6.02945 26.9327 5.4805C23.0218 4.86108 19.0152 5.49565 15.4872 7.29328ZM32.5126 40.7067C36.0406 38.9091 38.909 36.0407 40.7066 32.5126C42.5043 28.9846 43.1388 24.978 42.5194 21.0672L41.0379 21.3018C41.6077 24.8998 41.0239 28.5859 39.3701 31.8317C37.7163 35.0775 35.0774 37.7164 31.8316 39.3702C28.5858 41.024 24.8998 41.6078 21.3018 41.0379C18.1855 40.5444 15.2739 39.2073 12.8765 37.1846H16.9784L16.9784 35.6846H11.9784C11.0119 35.6846 10.2284 36.4681 10.2284 37.4346L10.2284 42.4346H11.7284L11.7284 38.1765C14.3681 40.4616 17.6012 41.9705 21.0671 42.5195C24.978 43.1389 28.9845 42.5043 32.5126 40.7067ZM23.9999 14.2148L24.2224 14.2839L32.7224 16.9242L33.2499 17.088V17.6404V27.4206C33.2499 29.1189 32.3431 30.6881 30.8716 31.5361L26.3716 34.1293C24.9036 34.9753 23.0962 34.9753 21.6282 34.1293L17.1282 31.5361C15.6567 30.6881 14.7499 29.1189 14.7499 27.4206V17.6404V17.088L15.2774 16.9242L23.7774 14.2839L23.9999 14.2148ZM16.2499 18.1928V27.4206C16.2499 28.5826 16.8703 29.6562 17.8772 30.2365L22.3772 32.8297C23.3816 33.4085 24.6182 33.4085 25.6226 32.8297L30.1226 30.2365C31.1295 29.6562 31.7499 28.5826 31.7499 27.4206V18.1928L23.9999 15.7855L16.2499 18.1928ZM20.33 24.694L21.7462 26.1102C22.2344 26.5983 23.0258 26.5983 23.514 26.1102L28.4637 21.1604L29.5244 22.2211L24.5747 27.1708C23.5007 28.2448 21.7595 28.2448 20.6856 27.1708L19.2694 25.7546L20.33 24.694Z" fill="#6E6E6E"/>
</svg>
