<svg width="84" height="84" viewBox="0 0 84 84" fill="none" xmlns="http://www.w3.org/2000/svg">
<g filter="url(#filter0_dd_9534_17945)">
<rect x="12.25" y="12.1768" width="58" height="58" rx="29" fill="url(#paint0_linear_9534_17945)"/>
<path fill-rule="evenodd" clip-rule="evenodd" d="M41.8307 23.6105L41.6285 23.5479L41.4262 23.6105L26.6357 28.2034L26.1562 28.3524V32.4395H27.5196V29.356L41.6285 24.9749L55.7373 29.356V32.4395H57.1008V28.3524L56.6213 28.2034L41.8307 23.6105ZM57.0331 49.2497H55.6392C55.5334 49.6703 55.3441 50.0654 55.0826 50.4113C54.821 50.7573 54.4925 51.0472 54.1167 51.2638L44.918 56.5626C43.9173 57.139 42.7827 57.4425 41.6278 57.4425C40.4729 57.4425 39.3383 57.139 38.3376 56.5626L29.1389 51.2638C28.7631 51.0472 28.4346 50.7573 28.173 50.4113C27.9115 50.0654 27.7222 49.6703 27.6164 49.2497H26.2248C26.3404 49.9134 26.6005 50.5436 26.9867 51.0956C27.3728 51.6477 27.8756 52.1082 28.4595 52.4446L37.6582 57.7439C38.8659 58.4396 40.2353 58.8058 41.6292 58.8058C43.0231 58.8058 44.3925 58.4396 45.6002 57.7439L54.7984 52.4446C55.3822 52.1082 55.8849 51.6476 56.271 51.0956C56.657 50.5435 56.9175 49.9134 57.0331 49.2497ZM29.3166 47.3856H27.1788V38.7997C27.1788 37.7747 27.2028 36.9624 27.2515 36.3618C27.112 36.5071 26.9388 36.668 26.7329 36.8438C26.5329 37.0201 25.853 37.5775 24.6946 38.5176L23.6211 37.1623L27.5333 34.0883H29.3166V47.3856ZM39.2197 45.885C39.966 44.7628 40.3391 43.0472 40.3391 40.737C40.3391 38.4935 39.9574 36.7893 39.1929 35.6253C38.4285 34.4608 37.3032 33.8789 35.8175 33.8789C34.295 33.8789 33.1606 34.4368 32.4144 35.5526C31.6745 36.6621 31.3045 38.3903 31.3045 40.7365C31.3045 42.9745 31.6863 44.6724 32.4507 45.8304C33.2152 46.9885 34.3373 47.5673 35.8171 47.5673C37.3459 47.5673 38.4798 47.0067 39.2197 45.885ZM34.025 44.6206C33.6551 43.8446 33.4701 42.5497 33.4701 40.737C33.4701 38.9242 33.6551 37.6262 34.0246 36.8438C34.4009 36.0619 34.9985 35.6707 35.8175 35.6707C36.636 35.6707 37.2337 36.0705 37.6095 36.8715C37.9917 37.6657 38.1831 38.9542 38.1831 40.737C38.1831 42.5257 37.9922 43.8141 37.6095 44.6024C37.2337 45.3907 36.636 45.785 35.8171 45.785C34.9985 45.785 34.4009 45.3966 34.025 44.6206ZM50.8417 40.737C50.8417 43.0472 50.469 44.7632 49.7228 45.8845C48.9829 47.0067 47.8485 47.5673 46.3196 47.5673C44.8398 47.5673 43.7177 46.9885 42.9533 45.8304C42.1893 44.6719 41.8071 42.9745 41.8071 40.737C41.8071 38.3903 42.177 36.6621 42.9169 35.5526C43.6632 34.4368 44.7976 33.8789 46.3196 33.8789C47.8058 33.8789 48.9311 34.4608 49.6955 35.6253C50.4595 36.7893 50.8417 38.4939 50.8417 40.737ZM43.9727 40.737C43.9727 42.5497 44.1577 43.8446 44.5272 44.6206C44.9035 45.397 45.5011 45.785 46.3196 45.785C47.1386 45.785 47.7362 45.3907 48.1121 44.6024C48.4943 43.8141 48.6856 42.5261 48.6856 40.737C48.6856 38.9542 48.4948 37.6657 48.1121 36.8715C47.7362 36.071 47.1386 35.6707 46.3196 35.6707C45.5011 35.6707 44.9035 36.0615 44.5276 36.8438C44.1577 37.6262 43.9727 38.9237 43.9727 40.737ZM58.7737 36.6653C58.8215 36.5896 58.854 36.5052 58.8692 36.417C58.8843 36.3288 58.882 36.2385 58.8623 36.1511C58.8426 36.0638 58.8058 35.9813 58.7542 35.9082C58.7025 35.835 58.637 35.7728 58.5613 35.725C58.4855 35.6772 58.4012 35.6448 58.3129 35.6296C58.2247 35.6144 58.1343 35.6168 58.047 35.6365C57.9596 35.6562 57.877 35.6929 57.8039 35.7446C57.7308 35.7962 57.6685 35.8617 57.6207 35.9374L52.167 44.5697C52.1192 44.6454 52.0867 44.7297 52.0715 44.8179C52.0563 44.9061 52.0587 44.9965 52.0784 45.0838C52.0981 45.1711 52.1349 45.2537 52.1865 45.3268C52.2382 45.3999 52.3037 45.4621 52.3794 45.5099C52.4551 45.5577 52.5395 45.5901 52.6278 45.6053C52.716 45.6205 52.8064 45.6182 52.8937 45.5984C52.981 45.5787 53.0636 45.542 53.1368 45.4904C53.2099 45.4387 53.2722 45.3732 53.32 45.2975L58.7737 36.6653ZM55.2429 37.21C55.2429 37.6317 55.0753 38.0362 54.777 38.3344C54.4787 38.6326 54.0741 38.8001 53.6522 38.8001C53.2303 38.8001 52.8257 38.6326 52.5274 38.3344C52.2291 38.0362 52.0615 37.6317 52.0615 37.21C52.0615 36.7883 52.2291 36.3838 52.5274 36.0856C52.8257 35.7874 53.2303 35.6198 53.6522 35.6198C54.0741 35.6198 54.4787 35.7874 54.777 36.0856C55.0753 36.3838 55.2429 36.7883 55.2429 37.21ZM57.288 45.6151C57.7099 45.6151 58.1145 45.4476 58.4128 45.1493C58.7111 44.8511 58.8787 44.4467 58.8787 44.0249C58.8787 43.6032 58.7111 43.1987 58.4128 42.9005C58.1145 42.6023 57.7099 42.4348 57.288 42.4348C56.8662 42.4348 56.4616 42.6023 56.1633 42.9005C55.8649 43.1987 55.6974 43.6032 55.6974 44.0249C55.6974 44.4467 55.8649 44.8511 56.1633 45.1493C56.4616 45.4476 56.8662 45.6151 57.288 45.6151Z" fill="white"/>
</g>
<defs>
<filter id="filter0_dd_9534_17945" x="0.65" y="0.576758" width="82.7467" height="82.7467" filterUnits="userSpaceOnUse" color-interpolation-filters="sRGB">
<feFlood flood-opacity="0" result="BackgroundImageFix"/>
<feColorMatrix in="SourceAlpha" type="matrix" values="0 0 0 0 0 0 0 0 0 0 0 0 0 0 0 0 0 0 127 0" result="hardAlpha"/>
<feOffset dx="3.09333" dy="3.09333"/>
<feGaussianBlur stdDeviation="4.64"/>
<feColorMatrix type="matrix" values="0 0 0 0 0 0 0 0 0 0 0 0 0 0 0 0 0 0 0.12 0"/>
<feBlend mode="normal" in2="BackgroundImageFix" result="effect1_dropShadow_9534_17945"/>
<feColorMatrix in="SourceAlpha" type="matrix" values="0 0 0 0 0 0 0 0 0 0 0 0 0 0 0 0 0 0 127 0" result="hardAlpha"/>
<feOffset dx="0.773333" dy="0.773333"/>
<feGaussianBlur stdDeviation="6.18667"/>
<feColorMatrix type="matrix" values="0 0 0 0 0 0 0 0 0 0 0 0 0 0 0 0 0 0 0.06 0"/>
<feBlend mode="normal" in2="effect1_dropShadow_9534_17945" result="effect2_dropShadow_9534_17945"/>
<feBlend mode="normal" in="SourceGraphic" in2="effect2_dropShadow_9534_17945" result="shape"/>
</filter>
<linearGradient id="paint0_linear_9534_17945" x1="41.25" y1="12.1768" x2="24.43" y2="86.4168" gradientUnits="userSpaceOnUse">
<stop offset="0.074717" stop-color="#D1453F"/>
<stop offset="0.341829" stop-color="#D76560"/>
<stop offset="1" stop-color="#A02024"/>
</linearGradient>
</defs>
</svg>
