<svg width="83" height="84" viewBox="0 0 83 84" fill="none" xmlns="http://www.w3.org/2000/svg">
<g filter="url(#filter0_dd_9534_17974)">
<rect x="11.75" y="12.1768" width="58" height="58" rx="29" fill="url(#paint0_linear_9534_17974)"/>
<mask id="path-2-inside-1_9534_17974" fill="white">
<path fill-rule="evenodd" clip-rule="evenodd" d="M40.75 56.6433C32.208 56.6433 25.2834 49.7186 25.2834 41.1766C25.2834 32.6346 32.208 25.71 40.75 25.71C49.292 25.71 56.2167 32.6346 56.2167 41.1766C56.2167 41.1767 56.2167 41.1767 56.2167 41.1767H56.2168V56.6434H53.1235L50.0307 53.5506C47.4456 55.4925 44.2322 56.6433 40.75 56.6433Z"/>
</mask>
<path d="M56.2167 41.1767V42.68H54.7134L54.7134 41.1767L56.2167 41.1767ZM56.2168 41.1767V39.6734H57.7201V41.1767H56.2168ZM56.2168 56.6434H57.7201V58.1467H56.2168V56.6434ZM53.1235 56.6434V58.1467H52.5008L52.0605 57.7064L53.1235 56.6434ZM50.0307 53.5506L49.1278 52.3487L50.171 51.565L51.0937 52.4876L50.0307 53.5506ZM26.7867 41.1766C26.7867 48.8884 33.0383 55.14 40.75 55.14V58.1466C31.3778 58.1466 23.7801 50.5489 23.7801 41.1766H26.7867ZM40.75 27.2133C33.0383 27.2133 26.7867 33.4649 26.7867 41.1766H23.7801C23.7801 31.8044 31.3778 24.2067 40.75 24.2067V27.2133ZM54.7134 41.1766C54.7134 33.4649 48.4618 27.2133 40.75 27.2133V24.2067C50.1223 24.2067 57.72 31.8044 57.72 41.1766H54.7134ZM54.7134 41.1767C54.7134 41.1767 54.7134 41.1766 54.7134 41.1766H57.72C57.72 41.1767 57.72 41.1767 57.72 41.1767L54.7134 41.1767ZM56.2167 39.6734H56.2168V42.68H56.2167V39.6734ZM57.7201 41.1767V56.6434H54.7135V41.1767H57.7201ZM56.2168 58.1467H53.1235V55.1401H56.2168V58.1467ZM52.0605 57.7064L48.9677 54.6136L51.0937 52.4876L54.1865 55.5804L52.0605 57.7064ZM40.75 55.14C43.8955 55.14 46.7941 54.1018 49.1278 52.3487L50.9336 54.7525C48.0971 56.8833 44.5689 58.1466 40.75 58.1466V55.14Z" fill="white" mask="url(#path-2-inside-1_9534_17974)"/>
</g>
<defs>
<filter id="filter0_dd_9534_17974" x="0.15" y="0.576758" width="82.7467" height="82.7467" filterUnits="userSpaceOnUse" color-interpolation-filters="sRGB">
<feFlood flood-opacity="0" result="BackgroundImageFix"/>
<feColorMatrix in="SourceAlpha" type="matrix" values="0 0 0 0 0 0 0 0 0 0 0 0 0 0 0 0 0 0 127 0" result="hardAlpha"/>
<feOffset dx="3.09333" dy="3.09333"/>
<feGaussianBlur stdDeviation="4.64"/>
<feColorMatrix type="matrix" values="0 0 0 0 0 0 0 0 0 0 0 0 0 0 0 0 0 0 0.12 0"/>
<feBlend mode="normal" in2="BackgroundImageFix" result="effect1_dropShadow_9534_17974"/>
<feColorMatrix in="SourceAlpha" type="matrix" values="0 0 0 0 0 0 0 0 0 0 0 0 0 0 0 0 0 0 127 0" result="hardAlpha"/>
<feOffset dx="0.773333" dy="0.773333"/>
<feGaussianBlur stdDeviation="6.18667"/>
<feColorMatrix type="matrix" values="0 0 0 0 0 0 0 0 0 0 0 0 0 0 0 0 0 0 0.06 0"/>
<feBlend mode="normal" in2="effect1_dropShadow_9534_17974" result="effect2_dropShadow_9534_17974"/>
<feBlend mode="normal" in="SourceGraphic" in2="effect2_dropShadow_9534_17974" result="shape"/>
</filter>
<linearGradient id="paint0_linear_9534_17974" x1="40.75" y1="12.1768" x2="23.93" y2="86.4168" gradientUnits="userSpaceOnUse">
<stop offset="0.074717" stop-color="#D1453F"/>
<stop offset="0.341829" stop-color="#D76560"/>
<stop offset="1" stop-color="#A02024"/>
</linearGradient>
</defs>
</svg>
