<svg width="21" height="20" viewBox="0 0 21 20" fill="none" xmlns="http://www.w3.org/2000/svg">
<path fill-rule="evenodd" clip-rule="evenodd" d="M7.76007 2.00391C8.91507 0.00390625 11.8031 0.00390625 12.9571 2.00391L20.3121 14.7519C21.4661 16.7519 20.0221 19.2519 17.7131 19.2519H3.00407C0.695065 19.2519 -0.747935 16.7519 0.406065 14.7519L7.75907 2.00391H7.76007ZM10.3591 7.25091C10.558 7.25091 10.7487 7.32992 10.8894 7.47058C11.03 7.61123 11.1091 7.80199 11.1091 8.00091V11.7509C11.1091 11.9498 11.03 12.1406 10.8894 12.2812C10.7487 12.4219 10.558 12.5009 10.3591 12.5009C10.1602 12.5009 9.96939 12.4219 9.82874 12.2812C9.68808 12.1406 9.60907 11.9498 9.60907 11.7509V8.00091C9.60907 7.80199 9.68808 7.61123 9.82874 7.47058C9.96939 7.32992 10.1602 7.25091 10.3591 7.25091ZM10.3591 15.5009C10.558 15.5009 10.7487 15.4219 10.8894 15.2812C11.03 15.1406 11.1091 14.9498 11.1091 14.7509C11.1091 14.552 11.03 14.3612 10.8894 14.2206C10.7487 14.0799 10.558 14.0009 10.3591 14.0009C10.1602 14.0009 9.96939 14.0799 9.82874 14.2206C9.68808 14.3612 9.60907 14.552 9.60907 14.7509C9.60907 14.9498 9.68808 15.1406 9.82874 15.2812C9.96939 15.4219 10.1602 15.5009 10.3591 15.5009Z" fill="#FFA63B"/>
</svg>
