<svg width="48" height="48" viewBox="0 0 48 48" fill="none" xmlns="http://www.w3.org/2000/svg">
<g id="ic_expressive_multidevice">
<path id="Union" fill-rule="evenodd" clip-rule="evenodd" d="M11.9999 4C9.38055 4 7.25716 6.12339 7.25716 8.74272V20.7427C7.25716 23.3621 9.38055 25.4854 11.9999 25.4854H13.3185V27.9929L3.00379 27.9929C2.7654 27.9929 2.54122 28.1062 2.3999 28.2982C2.25858 28.4902 2.21695 28.7379 2.28776 28.9655L3.00379 28.7428C2.28776 28.9655 2.28788 28.9659 2.28799 28.9663L2.28824 28.9671L2.28881 28.9689L2.29023 28.9733L2.29418 28.9855C2.29732 28.9951 2.30149 29.0075 2.30672 29.0225C2.31718 29.0526 2.33194 29.0935 2.35139 29.1435C2.39021 29.2433 2.44803 29.3806 2.52797 29.5429C2.6871 29.8659 2.93826 30.2969 3.309 30.7302C4.06057 31.6087 5.30574 32.4926 7.20379 32.4926L13.3185 32.4926V39.6077C13.3185 40.9898 14.4389 42.1103 15.821 42.1103H22.1809C23.5631 42.1103 24.6835 40.9898 24.6835 39.6077V25.2478C24.6835 23.8657 23.5631 22.7452 22.1809 22.7452H18.251V16.5C18.251 15.8096 18.8106 15.25 19.501 15.25H25.501H32.501C33.1913 15.25 33.751 15.8096 33.751 16.5V36.5C33.751 37.1904 33.1913 37.75 32.501 37.75H27.751V39.25H32.501C34.0198 39.25 35.251 38.0188 35.251 36.5V16.5C35.251 14.9812 34.0198 13.75 32.501 13.75H25.501H19.501C17.9822 13.75 16.751 14.9812 16.751 16.5V22.7452H15.821C14.8933 22.7452 14.0834 23.25 13.6512 24H11.9999C10.2009 24 8.7426 22.5417 8.7426 20.7427V8.74272C8.7426 6.94378 10.2009 5.48545 11.9999 5.48545H35.9999C37.7988 5.48545 39.2572 6.94378 39.2572 8.74272V20.7427C39.2572 21.6689 38.8706 22.5048 38.25 23.0979V24.9187C39.7342 24.1173 40.7426 22.5478 40.7426 20.7427V8.74272C40.7426 6.12339 38.6192 4 35.9999 4H11.9999ZM13.3185 30.9928V29.4926L4.24207 29.4926C4.30461 29.5792 4.37333 29.6673 4.44858 29.7552C4.98034 30.3768 5.83517 30.9929 7.20379 30.9929L13.3185 30.9928ZM40.8038 30.9928L38.25 30.9928V32.4926L40.8038 32.4926C42.7018 32.4926 43.947 31.6086 44.6986 30.7302C45.0693 30.2969 45.3205 29.8659 45.4796 29.5428C45.5595 29.3805 45.6174 29.2433 45.6562 29.1434C45.6756 29.0934 45.6904 29.0526 45.7008 29.0225C45.7061 29.0074 45.7102 28.995 45.7134 28.9855L45.7173 28.9733L45.7188 28.9688L45.7193 28.967L45.7196 28.9662C45.7197 28.9658 45.7198 28.9655 45.0038 28.7427L45.7198 28.9655C45.7906 28.7379 45.749 28.4901 45.6077 28.2982C45.4663 28.1062 45.2422 27.9929 45.0038 27.9929L38.25 27.9929V29.4926L43.7655 29.4926C43.703 29.5791 43.6342 29.6673 43.559 29.7552C43.0272 30.3767 42.1724 30.9928 40.8038 30.9928ZM15.821 24.1103C15.1928 24.1103 14.6835 24.6195 14.6835 25.2478V39.6077C14.6835 40.2359 15.1928 40.7452 15.821 40.7452H22.1809C22.8092 40.7452 23.3185 40.2359 23.3185 39.6077V25.2478C23.3185 24.6195 22.8092 24.1103 22.1809 24.1103H15.821Z" fill="#6E6E6E"/>
</g>
</svg>
