<svg width="48" height="48" viewBox="0 0 48 48" fill="none" xmlns="http://www.w3.org/2000/svg">
<g id="ic_expressive_support">
<path id="Union" fill-rule="evenodd" clip-rule="evenodd" d="M32.75 25C38.1348 25 42.5 20.6348 42.5 15.25C42.5 9.86522 38.1348 5.5 32.75 5.5C27.5474 5.5 23.2965 9.57488 23.0149 14.7071C22.5616 14.3925 22.0835 14.1111 21.5842 13.8664C22.2662 8.30596 27.0052 4 32.75 4C38.9632 4 44 9.0368 44 15.25C44 21.4632 38.9632 26.5 32.75 26.5L27.4035 26.5C27.529 26.0123 27.6219 25.5115 27.6798 25H32.75ZM27.5 18.25H32.5V16.75H27.5V18.25ZM37.5 14.25H27.5V12.75H37.5V14.25ZM16.75 17C13.0221 17 10 20.0221 10 23.75C10 27.4779 13.0221 30.5 16.75 30.5C20.4779 30.5 23.5 27.4779 23.5 23.75C23.5 20.0221 20.4779 17 16.75 17ZM8.5 23.75C8.5 19.1937 12.1937 15.5 16.75 15.5C21.3063 15.5 25 19.1937 25 23.75C25 28.3063 21.3063 32 16.75 32C12.1937 32 8.5 28.3063 8.5 23.75ZM3.5 43C3.5 38.1675 7.41751 34.25 12.25 34.25H20.25C25.0825 34.25 29 38.1675 29 43V43.5C29 44.1904 28.4404 44.75 27.75 44.75H4.75C4.05964 44.75 3.5 44.1904 3.5 43.5V43ZM12.25 35.75C8.24594 35.75 5 38.9959 5 43V43.25H27.5V43C27.5 38.9959 24.2541 35.75 20.25 35.75H12.25Z" fill="#6E6E6E"/>
</g>
</svg>
