<svg width="48" height="48" viewBox="0 0 48 48" fill="none" xmlns="http://www.w3.org/2000/svg">
<g id="ic_expressive_wifi_scan">
<path id="Union" fill-rule="evenodd" clip-rule="evenodd" d="M42.8624 17.1391C38.0242 12.2944 31.3365 9.29736 23.9488 9.29736C16.5871 9.29736 9.92052 12.2733 5.08643 17.0879L6.14709 18.1485C10.7097 13.6054 17.0013 10.7974 23.9488 10.7974C30.9223 10.7974 37.235 13.6266 41.8018 18.1997L42.8624 17.1391ZM30.0025 18.9963C29.3385 19.273 28.7025 19.6032 28.0997 19.9814C26.7729 19.6391 25.3817 19.457 23.948 19.457C19.392 19.457 15.2655 21.2957 12.2701 24.2715L11.2094 23.2109C14.4763 19.9636 18.9778 17.957 23.948 17.957C26.0716 17.957 28.1097 18.3234 30.0025 18.9963ZM22.7302 26.6948C22.5483 27.2131 22.3983 27.7464 22.2826 28.2923C20.7851 28.6133 19.4449 29.3581 18.3936 30.395L17.3329 29.3344C18.7606 27.923 20.6377 26.9652 22.7302 26.6948ZM28.75 31.0005C28.75 27.5487 31.5482 24.7505 35 24.7505C38.4518 24.7505 41.25 27.5487 41.25 31.0005C41.25 34.4523 38.4518 37.2505 35 37.2505C31.5482 37.2505 28.75 34.4523 28.75 31.0005ZM35 23.2505C30.7198 23.2505 27.25 26.7203 27.25 31.0005C27.25 35.2807 30.7198 38.7505 35 38.7505C36.87 38.7505 38.5853 38.0882 39.9241 36.9854L43.4697 40.5308L44.5303 39.4701L40.9848 35.9248C42.0877 34.5859 42.75 32.8705 42.75 31.0005C42.75 26.7203 39.2802 23.2505 35 23.2505Z" fill="#6E6E6E"/>
</g>
</svg>
