<svg width="33" height="40" viewBox="0 0 33 40" fill="none" xmlns="http://www.w3.org/2000/svg">
<g id="Layer_1" clip-path="url(#clip0_407_1797)">
<path id="Vector" d="M15.9975 13.7917H27.654C28.0077 13.7917 28.2569 13.541 28.2569 13.185C28.2569 12.8736 27.9635 12.5784 27.654 12.5784H15.9975C15.6478 12.5784 15.3945 12.8332 15.3945 13.185C15.3945 13.5369 15.6478 13.7917 15.9975 13.7917Z" fill="#6E6E6E"/>
<path id="Vector_2" d="M23.9562 25.6825C23.6024 25.6825 23.3532 25.9333 23.3532 26.2892V37.2093C23.3532 38.0627 22.6337 38.7867 21.7856 38.7867H2.77345C1.92534 38.7867 1.20585 38.0627 1.20585 37.2093V2.7907C1.20585 1.93731 1.92534 1.21335 2.77345 1.21335H21.7856C22.6337 1.21335 23.3532 1.93731 23.3532 2.7907V4.48938C23.3532 4.8453 23.6024 5.09606 23.9562 5.09606C24.3099 5.09606 24.5591 4.84125 24.5591 4.48938V2.7907C24.5591 1.25379 23.313 0 21.7856 0H2.77345C1.24604 0 0 1.25379 0 2.7907V37.2497C0 38.7664 1.24604 40 2.77345 40H21.7856C23.313 40 24.5591 38.7462 24.5591 37.2093V26.2892C24.5591 25.9373 24.3058 25.6825 23.9562 25.6825Z" fill="#6E6E6E"/>
<path id="Vector_3" d="M9.8478 35.1062H14.7114C15.0651 35.1062 15.3143 34.8554 15.3143 34.4995C15.3143 34.1436 15.0611 33.8928 14.7114 33.8928H9.8478C9.4981 33.8928 9.24487 34.1476 9.24487 34.4995C9.24487 34.8514 9.49408 35.1062 9.8478 35.1062Z" fill="#6E6E6E"/>
<path id="Vector_4" d="M29.8247 7.36096H14.2291C12.4766 7.36096 11.0537 8.79271 11.0537 10.5561V20.1415C11.0537 21.9049 12.4766 23.3367 14.2291 23.3367H15.6359V27.3003C15.6359 27.5591 15.7726 27.7735 15.9856 27.8463C16.0781 27.907 16.1866 27.907 16.2389 27.907C16.4037 27.907 16.5403 27.8503 16.6609 27.729L21.223 23.2962H29.8247C31.5772 23.2962 33.0001 21.8645 33.0001 20.1011V10.5561C33.0001 8.79271 31.5772 7.36096 29.8247 7.36096ZM16.279 22.1233H14.2693C13.184 22.1233 12.2998 21.2336 12.2998 20.1415V10.5561C12.2998 9.4641 13.184 8.57431 14.2693 8.57431H29.9051C30.9502 8.57431 31.8345 9.48027 31.8345 10.5561V20.1415C31.8345 21.2336 30.9502 22.1233 29.8649 22.1233H21.022C20.8572 22.1233 20.7206 22.18 20.6 22.3013L16.882 25.8969V22.73C16.882 22.3741 16.6328 22.1233 16.279 22.1233Z" fill="#6E6E6E"/>
<path id="Vector_5" d="M28.2569 17.634C28.2569 17.3225 27.9635 17.0273 27.654 17.0273H15.9975C15.6478 17.0273 15.3945 17.2821 15.3945 17.634C15.3945 17.9858 15.6478 18.2406 15.9975 18.2406H27.654C28.0077 18.2406 28.2569 17.9899 28.2569 17.634Z" fill="#6E6E6E"/>
</g>
<defs>
<clipPath id="clip0_407_1797">
<rect width="33" height="40" fill="white"/>
</clipPath>
</defs>
</svg>
