<svg width="64" height="64" viewBox="0 0 64 64" fill="none" xmlns="http://www.w3.org/2000/svg">
<path fill-rule="evenodd" clip-rule="evenodd" d="M43.0941 6.66534C36.4334 6.66534 31.0339 12.0649 31.0339 18.7256C31.0339 21.8766 32.243 24.7456 34.2205 26.8931C31.7711 27.7016 29.5735 29.0378 27.7526 30.7575C27.3904 30.6009 27.0209 30.4576 26.6446 30.3284C28.3377 28.4274 29.3679 25.9203 29.3679 23.1729C29.3679 17.2291 24.5496 12.4108 18.6058 12.4108C12.6621 12.4108 7.84375 17.2291 7.84375 23.1729C7.84375 25.92 8.87379 28.427 10.5667 30.3279C3.82144 32.6427 -0.733871 39.4769 0.265689 46.995L1.58658 56.93L1.70201 57.7982H2.57786H24.0558L24.059 57.822H24.9348H61.2515H62.1273L62.2427 56.9538L63.7393 45.6977C64.8725 37.1742 59.6556 29.4323 51.9672 26.8936C53.945 24.746 55.1543 21.8768 55.1543 18.7256C55.1543 12.0649 49.7548 6.66534 43.0941 6.66534ZM33.0339 18.7256C33.0339 13.1695 37.538 8.66534 43.0941 8.66534C48.6502 8.66534 53.1543 13.1695 53.1543 18.7256C53.1543 21.9161 51.6702 24.7594 49.3507 26.6041L47.6956 27.9204L49.7632 28.3645C57.4148 30.0079 62.8349 37.3244 61.7567 45.4341L60.3756 55.822H46.9561C46.5824 51.9696 43.8946 48.7953 40.2997 47.7056C41.2661 46.3262 41.834 44.6457 41.834 42.8333C41.834 38.1389 38.0284 34.3333 33.334 34.3333C28.6396 34.3333 24.834 38.1389 24.834 42.8333C24.834 44.6457 25.4019 46.3262 26.3683 47.7056C22.7808 48.793 20.0966 51.9565 19.7142 55.7982H3.4537L2.24824 46.7314C1.30477 39.6351 6.04804 33.2325 12.7439 31.7952L14.8118 31.3513L13.1565 30.0348C11.1361 28.4279 9.84375 25.9516 9.84375 23.1729C9.84375 18.3337 13.7667 14.4108 18.6058 14.4108C23.445 14.4108 27.3679 18.3337 27.3679 23.1729C27.3679 25.9518 26.0754 28.4282 24.0548 30.0351L22.3995 31.3514L24.4672 31.7955C25.541 32.0261 26.5644 32.3843 27.5222 32.8527L28.1719 33.1704L28.677 32.6529C30.7404 30.5394 33.4102 29.0113 36.4245 28.3642L38.4922 27.9203L36.8371 26.6038C34.5178 24.7591 33.0339 21.916 33.0339 18.7256ZM26.834 42.8333C26.834 39.2435 29.7441 36.3333 33.334 36.3333C36.9238 36.3333 39.834 39.2435 39.834 42.8333C39.834 44.7218 39.0299 46.4209 37.7425 47.6098L36.1128 49.1149L38.3198 49.3394C41.7418 49.6875 44.4788 52.3553 44.9341 55.7452H21.7339C22.1891 52.3553 24.9261 49.6875 28.3482 49.3394L30.5552 49.1149L28.9254 47.6098C27.638 46.4209 26.834 44.7218 26.834 42.8333Z" fill="#6E6E6E"/>
</svg>
