<svg width="64" height="64" viewBox="0 0 64 64" fill="none" xmlns="http://www.w3.org/2000/svg">
<path fill-rule="evenodd" clip-rule="evenodd" d="M19.6666 21.3336C19.6666 14.5221 25.1884 9.00031 32 9.00031C38.8115 9.00031 44.3333 14.5221 44.3333 21.3336C44.3333 28.1452 38.8115 33.667 32 33.667C25.1884 33.667 19.6666 28.1452 19.6666 21.3336ZM32 7.00031C24.0839 7.00031 17.6666 13.4176 17.6666 21.3336C17.6666 29.2497 24.0839 35.667 32 35.667C39.916 35.667 46.3333 29.2497 46.3333 21.3336C46.3333 13.4176 39.916 7.00031 32 7.00031ZM24.8889 40.3336C16.4819 40.3336 9.66663 47.1489 9.66663 55.5559V56.4448C9.66663 57.488 10.5123 58.3336 11.5555 58.3336H52.4444C53.4876 58.3336 54.3333 57.488 54.3333 56.4448V55.5559C54.3333 47.1489 47.5181 40.3336 39.1111 40.3336H24.8889ZM11.6666 55.5559C11.6666 48.2534 17.5864 42.3336 24.8889 42.3336H39.1111C46.4135 42.3336 52.3333 48.2534 52.3333 55.5559V56.3336H11.6666V55.5559Z" fill="#6E6E6E"/>
</svg>
