<svg width="44" height="34" viewBox="0 0 44 34" fill="none" xmlns="http://www.w3.org/2000/svg">
<g id="Layer_1" clip-path="url(#clip0_407_1767)">
<path id="Vector" d="M2.55814 0C1.15116 0 0 1.15909 0 2.57576V33.4848C0 33.7527 0.245581 34 0.511628 34H43.4884C43.7544 34 44 33.7527 44 33.4848V2.57576C44 1.15909 42.8488 0 41.4419 0H2.55814ZM2.55814 1.0303H41.4419C42.3014 1.0303 42.9767 1.7103 42.9767 2.57576V7.21212H1.02326V2.57576C1.02326 1.7103 1.6986 1.0303 2.55814 1.0303ZM4.60465 3.60606C4.32326 3.60606 4.09302 3.83788 4.09302 4.12121C4.09302 4.40455 4.32326 4.63636 4.60465 4.63636H13.814C14.0953 4.63636 14.3256 4.40455 14.3256 4.12121C14.3256 3.83788 14.0953 3.60606 13.814 3.60606H4.60465ZM1.02326 8.24242H42.9767V32.9697H1.02326V8.24242ZM21.7135 11.4158L12.5042 17.5976C12.3149 17.7161 12.2228 17.9685 12.2893 18.1848C12.3558 18.3961 12.5707 18.5558 12.7907 18.5506H15.3488V28.8536C14.4688 28.8536 13.5684 28.8536 12.6935 28.8536C12.4274 28.8794 12.2023 29.1473 12.2279 29.4151C12.2535 29.683 12.5195 29.9097 12.7856 29.8839H31.2042C31.4753 29.8839 31.7209 29.6418 31.7209 29.3688C31.7209 29.0958 31.4702 28.8485 31.2042 28.8536H28.646V18.5506H31.2042C31.4242 18.5558 31.6442 18.4012 31.7056 18.1848C31.7721 17.9736 31.68 17.7212 31.4907 17.5976L22.2814 11.4158C22.1023 11.2973 21.8567 11.3179 21.7084 11.4158H21.7135ZM22 12.4615L29.5312 17.5152H14.4688L22 12.4615ZM16.3721 18.5455H19.4419V28.8485H16.3721V18.5455ZM20.4651 18.5455H23.5349V28.8485H20.4651V18.5455ZM24.5581 18.5455H27.6279V28.8485H24.5581V18.5455Z" fill="#6E6E6E"/>
</g>
<defs>
<clipPath id="clip0_407_1767">
<rect width="44" height="34" fill="white"/>
</clipPath>
</defs>
</svg>
