<svg width="34" height="44" viewBox="0 0 34 44" fill="none" xmlns="http://www.w3.org/2000/svg">
<g id="Layer_1" clip-path="url(#clip0_407_1778)">
<path id="Vector" d="M20.2032 8.40213C20.5112 8.40213 20.7665 8.13688 20.7665 7.81702V5.26596C20.744 2.57447 18.7913 0.312057 16.2152 0H4.51381C1.97526 0.319858 0.0225315 2.58227 0 5.26596V32.8362C0 34.2638 0.540756 35.6135 1.51712 36.6199C2.49348 37.6262 3.78529 38.1801 5.15971 38.1801H9.26044C9.56837 38.1801 9.82372 37.9149 9.82372 37.595C9.82372 37.2752 9.56837 37.0099 9.26044 37.0099H5.18224C2.95913 37.0099 1.15662 35.1376 1.15662 32.8284V5.26596C1.15662 2.96454 2.96664 1.0922 5.18224 1.0922H5.48266L6.28628 2.62128C6.5867 3.19078 7.16501 3.54965 7.78838 3.54965H13.0457C13.6691 3.54965 14.2474 3.19078 14.5478 2.62128L15.3514 1.0922H15.6519C17.8524 1.1078 19.6399 2.98014 19.6399 5.26596V7.81702C19.6399 8.13688 19.8953 8.40213 20.2032 8.40213ZM13.5414 2.05957C13.4363 2.25461 13.241 2.37943 13.0232 2.37943H7.76585C7.54805 2.37163 7.36779 2.24681 7.27016 2.05957L6.75944 1.0922H14.0596L13.5489 2.05957H13.5414Z" fill="#6E6E6E"/>
<path id="Vector_2" d="M18.4609 20.9156C18.3482 20.7986 18.2055 20.744 18.0628 20.744C17.9201 20.744 17.7774 20.7986 17.6647 20.9156C17.5596 21.0249 17.4995 21.1731 17.4995 21.3291C17.4995 21.4852 17.5596 21.6334 17.6647 21.7426C17.8901 21.9688 18.2431 21.9688 18.4609 21.7426C18.566 21.6334 18.6261 21.4852 18.6261 21.3291C18.6261 21.1731 18.566 21.0249 18.4609 20.9156Z" fill="#6E6E6E"/>
<path id="Vector_3" d="M28.6151 20.9156C28.5024 20.7986 28.3597 20.744 28.2095 20.744C28.0593 20.744 27.9241 20.7986 27.8114 20.9156C27.5936 21.1419 27.5861 21.5164 27.8114 21.7426C28.0368 21.9688 28.3898 21.9688 28.6076 21.7426C28.8254 21.5164 28.8254 21.1419 28.6076 20.9156H28.6151Z" fill="#6E6E6E"/>
<path id="Vector_4" d="M23.1398 10.1262C20.0304 10.1262 17.4994 12.7553 17.4994 15.9851V17.5688H14.0145C13.0457 17.5688 12.2571 18.3879 12.2571 19.3943V40.583C12.2571 42.4631 13.7291 43.9922 15.5392 44H30.7179C32.5279 44 34 42.4631 34 40.583V19.3943C34 18.3879 33.2114 17.5688 32.2425 17.5688H28.7802V15.9851C28.7802 12.7553 26.2491 10.1262 23.1398 10.1262ZM18.626 15.9851C18.626 13.4028 20.6538 11.2964 23.1398 11.2964C25.6258 11.2964 27.6461 13.4028 27.6536 15.9851V17.5688H18.626V15.9851ZM32.8884 40.583C32.8884 41.8234 31.9195 42.8298 30.7254 42.8298H15.5392C14.3525 42.8298 13.3837 41.8156 13.3837 40.583V36.4872H32.8884V40.583ZM32.2575 18.739H32.265C32.4228 18.739 32.5805 18.8014 32.6931 18.9184C32.8133 19.0354 32.8809 19.1993 32.8809 19.3709V19.5659H32.8659V35.317H13.3761V19.3865C13.3761 19.2149 13.4362 19.051 13.5489 18.9262C13.6615 18.8014 13.8193 18.7312 13.9845 18.7312H32.2425L32.2575 18.739Z" fill="#6E6E6E"/>
</g>
<defs>
<clipPath id="clip0_407_1778">
<rect width="34" height="44" fill="white"/>
</clipPath>
</defs>
</svg>
