<svg width="48" height="48" viewBox="0 0 48 48" fill="none" xmlns="http://www.w3.org/2000/svg">
<path fill-rule="evenodd" clip-rule="evenodd" d="M24.2225 5.28395L24 5.21484L23.7775 5.28395L6.77752 10.5644L6.25 10.7282V11.2806V30.841C6.25 33.9696 7.92041 36.8601 10.6311 38.4222L19.6311 43.6087C22.3353 45.167 25.6647 45.167 28.3689 43.6087L37.3689 38.4222C40.0796 36.8601 41.75 33.9696 41.75 30.841V11.2806V10.7282L41.2225 10.5644L24.2225 5.28395ZM7.75 30.841V11.833L24 6.78554L40.25 11.833V30.841C40.25 33.4332 38.8659 35.8282 36.6199 37.1226L27.6199 42.309C25.3794 43.6002 22.6207 43.6002 20.3801 42.309L11.3801 37.1226C9.13405 35.8282 7.75 33.4332 7.75 30.841ZM14 25.0004C14 24.583 14.0256 24.1716 14.0752 23.7677C15.3199 29.374 19.7899 33.7665 25.4381 34.8978C24.9685 34.9654 24.4883 35.0004 24 35.0004C22.0193 35.0004 20.1731 34.4246 18.6196 33.4311C17.5219 32.6005 16.5339 31.6324 15.6815 30.5523C14.6194 28.9641 14 27.0546 14 25.0004ZM15.6377 20.5914C15.6377 20.2021 15.6552 19.8169 15.6896 19.4365C16.2309 18.6296 16.8866 17.9058 17.6335 17.2885C17.3112 18.3325 17.1377 19.4417 17.1377 20.5914C17.1377 26.767 22.144 31.7732 28.3195 31.7732C29.5499 31.7732 30.7338 31.5745 31.841 31.2074C31.2385 31.9675 30.5279 32.6379 29.7323 33.1954C29.2685 33.2468 28.7971 33.2732 28.3195 33.2732C21.3155 33.2732 15.6377 27.5954 15.6377 20.5914ZM19.0459 20.591C19.0459 18.7698 19.571 17.0712 20.478 15.6383C21.2303 15.3551 22.0258 15.16 22.8519 15.0656C21.428 16.4745 20.5459 18.4297 20.5459 20.591C20.5459 24.8838 24.0259 28.3638 28.3186 28.3638C30.5379 28.3638 32.54 27.4336 33.9563 25.942C33.8789 26.7704 33.7005 27.5694 33.4335 28.3267C31.9674 29.2981 30.2091 29.8638 28.3186 29.8638C23.1974 29.8638 19.0459 25.7122 19.0459 20.591ZM22.4551 20.5911C22.4551 18.1743 23.9172 16.099 26.0052 15.2015C27.0231 15.4087 27.9847 15.7705 28.8645 16.2613C28.6857 16.239 28.5036 16.2275 28.3187 16.2275C25.9087 16.2275 23.9551 18.1811 23.9551 20.5911C23.9551 23.0011 25.9087 24.9548 28.3187 24.9548C30.7287 24.9548 32.6824 23.0011 32.6824 20.5911C32.6824 20.3755 32.6667 20.1636 32.6365 19.9563C33.1457 20.8263 33.5272 21.7801 33.7553 22.792C32.885 24.9398 30.7788 26.4548 28.3187 26.4548C25.0803 26.4548 22.4551 23.8295 22.4551 20.5911ZM28.3188 19.6367C27.7916 19.6367 27.3643 20.064 27.3643 20.5912C27.3643 21.1184 27.7916 21.5458 28.3188 21.5458C28.846 21.5458 29.2733 21.1184 29.2733 20.5912C29.2733 20.064 28.846 19.6367 28.3188 19.6367ZM25.8643 20.5912C25.8643 19.2356 26.9632 18.1367 28.3188 18.1367C29.6744 18.1367 30.7733 19.2356 30.7733 20.5912C30.7733 21.9468 29.6744 23.0458 28.3188 23.0458C26.9632 23.0458 25.8643 21.9468 25.8643 20.5912Z" fill="#6E6E6E"/>
</svg>
