<svg width="90" height="16" viewBox="0 0 90 16" fill="none" xmlns="http://www.w3.org/2000/svg">
<path d="M81.4582 11.2178V11.4849H81.0117V12.8677H80.676V11.4849H80.2295V11.2178H81.4582Z" fill="#706E6E"/>
<path d="M83.5291 11.2178V12.8677H83.1933V11.7945L82.7445 12.8677H82.4901L82.0389 11.7945V12.8677H81.7031V11.2178H82.0847L82.6173 12.4444L83.1499 11.2178H83.5291Z" fill="#706E6E"/>
<path d="M41.6374 10.3834L39.5035 9.11526L39.3449 9.36374C38.8583 10.1281 38.1938 10.5155 37.37 10.5148C35.9584 10.5141 34.8947 9.4494 34.8954 8.03733C34.8961 6.62597 35.9613 5.56267 37.3726 5.56314C38.2082 5.56385 38.8359 5.93079 39.3482 6.7187L39.5075 6.96341L41.6515 5.69245L41.466 5.42439C40.4422 3.94058 39.1035 3.21944 37.3743 3.21826C34.1054 3.21685 32.34 5.69906 32.3389 8.03568C32.3375 10.3725 34.0999 12.8571 37.3686 12.8585C39.0341 12.8597 40.6057 12.0123 41.4703 10.6477L41.6378 10.3831L41.6374 10.3834Z" fill="#C01818"/>
<path d="M41.5307 12.8616L44.4813 12.863L45.358 10.6823L49.7858 10.6845L50.6598 12.8663L53.6231 12.8682L48.3374 0.0866128L45.7053 0.0849609L46.4062 1.77949L41.5303 12.8616M47.591 5.12726L48.7852 8.12578L46.3804 8.12437L47.5912 5.12749L47.591 5.12726Z" fill="#C01818"/>
<path d="M54.8443 12.8682L57.4334 12.8696L57.4365 7.1333L59.1249 7.13448L59.1263 4.72802L57.4379 4.72684L57.4384 3.58968C57.4384 3.10168 57.7657 2.58325 58.3712 2.58348C58.7036 2.58348 58.9047 2.64059 59.1048 2.72625L59.3932 2.85037L60.4687 0.502191L60.1589 0.375472C59.6777 0.178198 59.0076 0.107406 58.5401 0.106934C57.3662 0.106462 56.3984 0.490156 55.7408 1.21672C55.1667 1.85102 54.85 2.73333 54.8493 3.70035L54.8488 4.72519L53.7055 4.72471L53.7041 7.13142L54.8474 7.13189L54.8441 12.8682H54.8443Z" fill="#C01818"/>
<path d="M20.1328 0.010498V12.8487L22.9458 12.8506L22.9501 5.51082L25.6767 7.54209L28.4055 5.51082V12.8534L31.2145 12.8551L31.2216 0.010498L25.6786 4.19904L20.1328 0.010498Z" fill="#C01818"/>
<path d="M64.9561 3.26245C61.6973 3.2608 59.937 5.73617 59.9355 8.06571C59.9344 10.396 61.6919 12.8725 64.9507 12.8744H64.9544C66.4489 12.8583 67.8503 12.1773 68.9348 10.9493L66.8231 9.79752C66.2818 10.3521 65.6241 10.6437 64.8988 10.6433C63.8352 10.6425 62.8925 9.93392 62.6457 9.00701L69.6876 9.01079L69.688 8.37129C69.6902 4.84938 66.9222 3.26363 64.9561 3.26245ZM62.6981 6.88088C63.036 6.00494 63.7651 5.49382 64.7076 5.49406C65.6598 5.49453 66.4033 5.99551 66.7974 6.88301L62.6981 6.88088Z" fill="#C01818"/>
<path d="M75.5398 3.26831C72.2806 3.26642 70.5209 5.74179 70.5195 8.07157C70.5181 10.4018 72.2752 12.8784 75.5346 12.8803H75.5377C77.0326 12.8642 78.434 12.1829 79.5186 10.9552L77.4069 9.80338C76.8651 10.3579 76.2079 10.6496 75.4825 10.6491C74.419 10.6484 73.4758 9.93978 73.2294 9.01287L80.2713 9.01664L80.2718 8.37715C80.2739 4.855 77.506 3.26949 75.5398 3.26831ZM73.2821 6.88674C73.62 6.01104 74.3487 5.49945 75.2916 5.50016C76.2437 5.50063 76.9873 6.0016 77.3814 6.8891L73.2821 6.88698V6.88674Z" fill="#C01818"/>
<path d="M7.74609 3.21586L0.791992 0.000235845V12.7815L7.74609 16L14.7002 12.7815V0L7.74609 3.21562V3.21586ZM11.8499 10.9622L7.74609 12.8608L3.6423 10.9622V4.45661L7.74609 6.35455L11.8499 4.45661V10.9622Z" fill="#C01818"/>
<path d="M89.9521 4.92636C89.9521 5.18687 89.7409 5.3983 89.4802 5.3983H87.0173C86.8871 5.3983 86.7814 5.50402 86.7814 5.63428V7.87603C86.7814 8.0575 86.6773 8.22292 86.5135 8.3015L85.2428 8.89025C84.9297 9.04057 84.5668 8.81238 84.5668 8.46479V5.63451C84.5668 5.50426 84.4613 5.39854 84.3308 5.39854H81.8538C81.5933 5.39854 81.3818 5.18711 81.3818 4.92659V3.81704C81.3818 3.55652 81.5933 3.34509 81.8538 3.34509H84.3308C84.4613 3.34509 84.5668 3.23938 84.5668 3.10912V0.554224C84.5668 0.293708 84.7782 0.0822754 85.0387 0.0822754H86.3094C86.5702 0.0822754 86.7814 0.293708 86.7814 0.554224V3.10912C86.7814 3.23938 86.8871 3.34509 87.0173 3.34509H89.4802C89.7409 3.34509 89.9521 3.55652 89.9521 3.81704V4.92659V4.92636Z" fill="#383434"/>
</svg>
