<svg width="116" height="22" viewBox="0 0 116 22" fill="none" xmlns="http://www.w3.org/2000/svg">
<path d="M52.8312 13.8093L50.0722 12.1744L49.8678 12.4809C49.2547 13.5027 48.3351 14.0137 47.3132 14.0137C45.4739 14.0137 44.1455 12.583 44.1455 10.8459C44.1455 9.00659 45.5761 7.67821 47.3132 7.67821C48.4373 7.67821 49.2547 8.18914 49.8678 9.21098L50.0722 9.51752L52.8312 7.8826L52.6268 7.57606C51.2984 5.63455 49.5613 4.71484 47.3132 4.71484C43.0215 4.71484 40.7734 7.98478 40.7734 10.9481C40.7734 14.0137 43.0215 17.1813 47.3132 17.1813C49.4591 17.1813 51.5028 16.0573 52.6268 14.3202L52.8312 13.8093Z" fill="#AF0707"/>
<path d="M52.7266 16.9776H56.6096L57.7336 14.1165H63.4559L64.5799 16.9776H68.463L61.6166 0.423828H58.2445L59.1642 2.67183L52.7266 16.9776ZM60.5948 6.96359L62.1275 10.8466H58.9598L60.5948 6.96359Z" fill="#AF0707"/>
<path d="M69.9937 16.9776H73.3658V9.5182H75.5117V6.35051H73.3658V4.9199C73.3658 4.3068 73.7745 3.59152 74.592 3.59152C75.0007 3.59152 75.3073 3.69371 75.5117 3.7959L75.9204 4.00028L77.351 0.93475L76.9422 0.730369C76.3291 0.423816 75.4095 0.423828 74.7964 0.423828C73.2636 0.423828 72.0374 0.934712 71.1177 1.85437C70.4024 2.67185 69.9937 3.79589 69.9937 5.12428V6.45267H68.4609V9.62042H69.9937V16.9776Z" fill="#AF0707"/>
<path d="M24.9375 0.320312V16.9763H28.6161V7.47321L32.0904 10.13L35.6669 7.47321V16.9763H39.3455V0.320312L32.0904 5.73607L24.9375 0.320312Z" fill="#AF0707"/>
<path d="M83.1804 4.50977C78.9909 4.50977 76.6406 7.67745 76.6406 10.743C76.6406 13.8085 78.8887 16.9762 83.1804 16.9762C85.1219 16.9762 86.9612 16.0566 88.3918 14.5238L85.6328 12.9911C84.9176 13.7063 84.1001 14.1151 83.1804 14.1151C81.7498 14.1151 80.5236 13.1954 80.2171 11.9692H89.4137V11.1517C89.3115 6.55345 85.735 4.50977 83.1804 4.50977ZM80.2171 9.21022C80.6258 8.08619 81.6476 7.37091 82.8739 7.37091C84.1001 7.37091 85.1219 7.98401 85.6328 9.21022H80.2171Z" fill="#AF0707"/>
<path d="M96.8757 4.50977C92.6862 4.50977 90.3359 7.67745 90.3359 10.743C90.3359 13.8085 92.584 16.9762 96.8757 16.9762C98.8172 16.9762 100.657 16.0566 102.087 14.5238L99.3282 12.9911C98.6129 13.7063 97.7954 14.1151 96.8757 14.1151C95.4452 14.1151 94.2189 13.1954 93.9124 11.9692H103.109V11.1517C103.007 6.55345 99.4304 4.50977 96.8757 4.50977ZM93.9124 9.21022C94.3211 8.08619 95.343 7.37091 96.5692 7.37091C97.7954 7.37091 98.8172 7.98401 99.3282 9.21022H93.9124Z" fill="#AF0707"/>
<path d="M8.7891 4.50991L-0.203125 0.320312V16.8742L8.7891 21.0637L17.7813 16.8742V0.320312L8.7891 4.50991ZM14.1027 14.524L8.7891 16.9763L3.47551 14.524V6.04267L8.7891 8.49506L14.1027 6.04267V14.524Z" fill="#AF0707"/>
<path d="M115.575 6.65575C115.575 6.96231 115.268 7.26883 114.962 7.26883H111.794C111.59 7.26883 111.488 7.37107 111.488 7.57544V10.4366C111.488 10.641 111.385 10.8453 111.181 10.9475L109.546 11.6628C109.137 11.8672 108.626 11.5606 108.626 11.1519V7.47321C108.626 7.26885 108.524 7.16667 108.32 7.16667H105.152C104.846 7.16667 104.539 6.86015 104.539 6.55359V5.12299C104.539 4.81644 104.846 4.50991 105.152 4.50991H108.32C108.524 4.50991 108.626 4.40767 108.626 4.2033V0.933456C108.626 0.626903 108.933 0.320312 109.24 0.320312H110.874C111.181 0.320312 111.488 0.626903 111.488 0.933456V4.2033C111.488 4.40767 111.59 4.50991 111.794 4.50991H114.962C115.268 4.50991 115.575 4.81644 115.575 5.12299V6.65575Z" fill="#454545"/>
</svg>
