<svg width="23" height="24" viewBox="0 0 23 24" fill="none" xmlns="http://www.w3.org/2000/svg">
<path d="M15 10.5V6.75C15 5.55653 14.5259 4.41193 13.682 3.56802C12.8381 2.72411 11.6935 2.25 10.5 2.25C9.30653 2.25 8.16193 2.72411 7.31802 3.56802C6.47411 4.41193 6 5.55653 6 6.75V10.5M5.25 21.75H15.75C16.3467 21.75 16.919 21.5129 17.341 21.091C17.7629 20.669 18 20.0967 18 19.5V12.75C18 12.1533 17.7629 11.581 17.341 11.159C16.919 10.7371 16.3467 10.5 15.75 10.5H5.25C4.65326 10.5 4.08097 10.7371 3.65901 11.159C3.23705 11.581 3 12.1533 3 12.75V19.5C3 20.0967 3.23705 20.669 3.65901 21.091C4.08097 21.5129 4.65326 21.75 5.25 21.75Z" stroke="#454545" stroke-width="1.5" stroke-linecap="round" stroke-linejoin="round"/>
</svg>
