<svg width="24" height="24" viewBox="0 0 24 24" fill="none" xmlns="http://www.w3.org/2000/svg">
<path d="M0.75 6.75C0.75 15.034 7.466 21.75 15.75 21.75H18C18.5967 21.75 19.169 21.5129 19.591 21.091C20.0129 20.669 20.25 20.0967 20.25 19.5V18.128C20.25 17.612 19.899 17.162 19.398 17.037L14.975 15.931C14.535 15.821 14.073 15.986 13.802 16.348L12.832 17.641C12.55 18.017 12.063 18.183 11.622 18.021C9.98488 17.4191 8.49815 16.4686 7.26478 15.2352C6.03141 14.0018 5.08087 12.5151 4.479 10.878C4.317 10.437 4.483 9.95 4.859 9.668L6.152 8.698C6.515 8.427 6.679 7.964 6.569 7.525L5.463 3.102C5.40214 2.85869 5.26172 2.6427 5.06405 2.48834C4.86638 2.33397 4.6228 2.25008 4.372 2.25H3C2.40326 2.25 1.83097 2.48705 1.40901 2.90901C0.987053 3.33097 0.75 3.90326 0.75 4.5V6.75Z" stroke="#454545" stroke-width="1.5" stroke-linecap="round" stroke-linejoin="round"/>
</svg>
