<svg width="21" height="18" viewBox="0 0 21 18" fill="none" xmlns="http://www.w3.org/2000/svg">
<path d="M13.5 6H17.25M13.5 9H17.25M13.5 12H17.25M3 16.5H18C18.5967 16.5 19.169 16.2629 19.591 15.841C20.0129 15.419 20.25 14.8467 20.25 14.25V3.75C20.25 3.15326 20.0129 2.58097 19.591 2.15901C19.169 1.73705 18.5967 1.5 18 1.5H3C2.40326 1.5 1.83097 1.73705 1.40901 2.15901C0.987053 2.58097 0.75 3.15326 0.75 3.75V14.25C0.75 14.8467 0.987053 15.419 1.40901 15.841C1.83097 16.2629 2.40326 16.5 3 16.5ZM9 6.375C9 6.62123 8.9515 6.86505 8.85727 7.09253C8.76305 7.32002 8.62494 7.52672 8.45083 7.70083C8.27672 7.87494 8.07002 8.01305 7.84253 8.10727C7.61505 8.2015 7.37123 8.25 7.125 8.25C6.87877 8.25 6.63495 8.2015 6.40747 8.10727C6.17998 8.01305 5.97328 7.87494 5.79917 7.70083C5.62506 7.52672 5.48695 7.32002 5.39273 7.09253C5.2985 6.86505 5.25 6.62123 5.25 6.375C5.25 5.87772 5.44754 5.40081 5.79917 5.04918C6.15081 4.69754 6.62772 4.5 7.125 4.5C7.62228 4.5 8.09919 4.69754 8.45082 5.04918C8.80246 5.40081 9 5.87772 9 6.375ZM10.294 12.711C9.3183 13.2307 8.22947 13.5017 7.124 13.5C6.0192 13.5014 4.9311 13.2304 3.956 12.711C4.19429 12.0622 4.62594 11.5023 5.19267 11.1067C5.75939 10.7111 6.43387 10.499 7.125 10.499C7.81613 10.499 8.49061 10.7111 9.05733 11.1067C9.62406 11.5023 10.0557 12.0622 10.294 12.711Z" stroke="#454545" stroke-width="1.5" stroke-linecap="round" stroke-linejoin="round"/>
</svg>
